<?xml version="1.0" standalone="no"?>
<!DOCTYPE svg PUBLIC "-//W3C//DTD SVG 20010904//EN"
 "http://www.w3.org/TR/2001/REC-SVG-20010904/DTD/svg10.dtd">
<svg version="1.0" xmlns="http://www.w3.org/2000/svg"
 width="128.000000pt" height="128.000000pt" viewBox="0 0 128.000000 128.000000"
 preserveAspectRatio="xMidYMid meet">
<metadata>
Created by potrace 1.14, written by Peter Selinger 2001-2017
</metadata>
<g transform="translate(0.000000,128.000000) scale(0.100000,-0.100000)"
fill="#000000" stroke="none">
<path d="M540 1169 c-85 -14 -212 -81 -280 -149 -109 -109 -170 -280 -155
-429 14 -132 68 -241 164 -334 109 -106 221 -151 371 -151 150 0 262 45 371
151 173 167 214 404 108 621 -55 112 -129 186 -241 241 -115 56 -210 70 -338
50z m138 -171 c8 -8 12 -53 12 -137 0 -178 -8 -171 218 -171 149 0 178 -2 194
-17 22 -20 23 -41 1 -65 -14 -16 -34 -18 -191 -18 -171 0 -175 0 -204 -25 -68
-57 -168 -13 -168 73 0 29 7 49 25 70 24 28 25 36 25 154 0 83 4 128 12 136
15 15 61 15 76 0z"/>
<path d="M605 675 c-14 -13 -25 -29 -25 -35 0 -6 11 -22 25 -35 13 -14 29 -25
35 -25 14 0 60 46 60 60 0 6 -11 22 -25 35 -13 14 -29 25 -35 25 -6 0 -22 -11
-35 -25z"/>
</g>
</svg>
